<svg id="Layer_1" data-name="Layer 1" xmlns="http://www.w3.org/2000/svg" viewBox="0 0 430.69 456.94"><defs><style>.cls-1,.cls-3,.cls-4{fill:#fff;}.cls-2{fill:none;stroke:#fff;stroke-miterlimit:10;}.cls-3{isolation:isolate;font-size:47.87px;font-family:Monoton-Regular, Monoton;}.cls-4{fill-rule:evenodd;}</style></defs><title>crossword-btn</title><polygon class="cls-1" points="149.43 42.98 149.43 113.79 77.62 113.79 77.62 41.98 149.43 41.98 149.43 42.98"/><rect class="cls-1" x="292.06" y="113.79" width="72.81" height="71.81"/><rect class="cls-1" x="221.24" y="328.22" width="71.81" height="72.81"/><rect class="cls-1" x="149.43" y="328.22" width="71.81" height="72.81"/><rect class="cls-1" x="77.62" y="185.6" width="71.81" height="71.81"/><polygon class="cls-1" points="77.62 400.03 77.62 401.03 5.81 401.03 5.81 328.22 6.81 328.22 77.62 328.22 77.62 400.03"/><polygon class="cls-2" points="365.37 329.22 365.37 401.53 293.06 401.53 221.24 401.53 149.43 401.53 77.62 401.53 6.31 401.53 6.31 329.22 6.31 257.41 6.31 185.6 6.31 113.79 6.31 42.47 77.62 42.47 149.43 42.47 221.24 42.47 293.06 42.47 365.37 42.47 365.37 113.79 365.37 185.6 365.37 257.41 365.37 329.22"/><polyline class="cls-2" points="220.75 42.97 220.75 113.29 220.75 185.1 220.75 256.91 220.75 328.72 220.75 401.03 220.75 402.03"/><polyline class="cls-2" points="292.56 41.98 292.56 113.29 292.56 185.1 292.56 256.91 292.56 328.72 292.56 401.03"/><polyline class="cls-2" points="77.12 40.98 77.12 41.98 77.12 113.29 77.12 185.1 77.12 256.91 77.12 328.72 77.12 400.04"/><polyline class="cls-2" points="148.93 42.97 148.93 113.29 148.93 185.1 148.93 256.91 148.93 328.72 148.93 401.03 148.93 402.03"/><polyline class="cls-2" points="6.81 185.1 77.12 185.1 148.93 185.1 220.75 185.1 292.56 185.1 364.87 185.1"/><polyline class="cls-2" points="6.81 113.29 77.12 113.29 148.93 113.29 220.75 113.29 292.56 113.29 364.87 113.29"/><polyline class="cls-2" points="6.81 256.91 77.12 256.91 148.93 256.91 220.75 256.91 292.56 256.91 364.87 256.91"/><polyline class="cls-2" points="6.81 328.72 77.12 328.72 148.93 328.72 220.75 328.72 292.56 328.72 364.87 328.72"/><text class="cls-3" transform="translate(92.86 170.79)">R</text><text class="cls-3" transform="translate(23.04 94.98)">C</text><text class="cls-3" transform="translate(163.67 242.6)">O</text><text class="cls-3" transform="translate(314.28 385.22)">S</text><text class="cls-3" transform="translate(239.47 314.41)">S</text><text class="cls-3" transform="translate(157.69 314.41)">W</text><path class="cls-1" d="M421.1,56.68l-1-19.4c-.26-5.07,3.91-9.42,9.33-9.69l.79,0c5.41-.29,10,3.59,10.3,8.66l1,19.4Z" transform="translate(-40.66 -27.53)"/><path class="cls-1" d="M452.5,426.62l-3.27.17c-5.42.29-20.52-36.29-20.52-36.29l40.38-2.13S457.92,426.33,452.5,426.62Z" transform="translate(-40.66 -27.53)"/><rect class="cls-1" x="426.18" y="297.98" width="40.43" height="88.43" transform="translate(-58.07 -3.53) rotate(-3.02)"/><path class="cls-1" d="M421.1,59.75l20.75-1.1c5.41-.29,10,3.59,10.3,8.67l12,226.64-40.38,2.13-12-226.63C411.51,64.38,415.68,60,421.1,59.75Z" transform="translate(-40.66 -27.53)"/><ellipse class="cls-1" cx="450.86" cy="426.67" rx="1.64" ry="4.09" transform="translate(-62.51 -3.18) rotate(-3.02)"/><path class="cls-1" d="M464,197.73a2.64,2.64,0,0,0,2.59-2.69L459.76,66.41a2.74,2.74,0,0,0-5.46.29l6.79,128.62A2.65,2.65,0,0,0,464,197.73Z" transform="translate(-40.66 -27.53)"/><path class="cls-4" d="M161,467.51a3.51,3.51,0,0,1-3-5.06,3.41,3.41,0,0,1,3.14-1.92h287a3.49,3.49,0,0,1,3.16,4.66,3.41,3.41,0,0,1-3.28,2.32Z" transform="translate(-40.66 -27.53)"/><path class="cls-4" d="M190.53,484.47a3.49,3.49,0,0,1,0-7H389.22a3.51,3.51,0,0,1,3,5.06,3.4,3.4,0,0,1-3.14,1.92Z" transform="translate(-40.66 -27.53)"/><path class="cls-4" d="M442,484.47a3.52,3.52,0,0,1-3.16-5,3.4,3.4,0,0,1,3.14-2h25.95a3.39,3.39,0,0,1,3.13,2,3.51,3.51,0,0,1-3.16,5Z" transform="translate(-40.66 -27.53)"/><path class="cls-4" d="M77.91,467.51a3.51,3.51,0,0,1-3.16-5,3.39,3.39,0,0,1,3.13-2h26a3.39,3.39,0,0,1,3.13,2,3.51,3.51,0,0,1-3.16,5Z" transform="translate(-40.66 -27.53)"/><path class="cls-4" d="M44,484.47a3.49,3.49,0,0,1,.16-7H138a3.49,3.49,0,0,1,.16,7Z" transform="translate(-40.66 -27.53)"/></svg>