<svg id="Layer_1" data-name="Layer 1" xmlns="http://www.w3.org/2000/svg" viewBox="0 0 448.9 460.1"><defs><style>.cls-1{fill:#fff;fill-rule:evenodd;}</style></defs><title>multiclip-btn</title><g id="_275_checklist_check_expertise_list_clipboard" data-name="275, checklist, check, expertise, list, clipboard"><path class="cls-1" d="M118.4,152.6h34.3a3.69,3.69,0,0,1,3.7,3.7v34.3a3.69,3.69,0,0,1-3.7,3.7H118.4a3.69,3.69,0,0,1-3.7-3.7V156.3a3.83,3.83,0,0,1,3.7-3.7m0,74h34.3a3.69,3.69,0,0,1,3.7,3.7v9.3l6.7-2.7a3.66,3.66,0,0,1,4.7,2.1,3.7,3.7,0,0,1-2,4.7l-9.4,3.8v17.1a3.69,3.69,0,0,1-3.7,3.7H118.4a3.69,3.69,0,0,1-3.7-3.7V230.3A3.83,3.83,0,0,1,118.4,226.6Zm0,74h34.3a3.69,3.69,0,0,1,3.7,3.7v34.3a3.69,3.69,0,0,1-3.7,3.7H118.4a3.69,3.69,0,0,1-3.7-3.7V304.3A3.76,3.76,0,0,1,118.4,300.6Zm0,74h34.3a3.69,3.69,0,0,1,3.7,3.7v9.3l6.7-2.7a3.66,3.66,0,0,1,4.7,2.1,3.7,3.7,0,0,1-2,4.7l-9.4,3.7v17.1a3.69,3.69,0,0,1-3.7,3.7H118.4a3.69,3.69,0,0,1-3.7-3.7V378.2A3.74,3.74,0,0,1,118.4,374.6Zm256.5,24,14.1,3.8,16.4-4.2,26-96.9-3.4-1.9a3.6,3.6,0,0,1-1.9-3c-1-20.1-10.5-24.1-19.3-27.8-6-2.5-11.9-4.9-15.8-11.1-8-12.6-15.2-19.4-20.9-22.1H370l-.1-.1-.2-.1h-.3l-.3-.1H369l-.1-.1h0l-.2-.1h0l-.1-.1h0l-.2-.1h-3.8l-.4.1H362l-.1.1h0l-.1.1h0c-.2.2-.4.5-.7.8h0v.1h0v.1h0v.1h0v.1h0v.1h0v.1h0v.1h0v.1h0v.1h0l-.1.1a10.33,10.33,0,0,0-.7,2.1h0l-.1.4h0v.2h0v.1h0v.1h0v.1h0v.2h0v.1h0v.1h0v.2h0v.2h0v.4h0v.1h0v.4h0v.2h0v.4h0v.1h0v.1h0v.2h0v.1h0v.1h0v.2h0v2.9h0l.1.2v.4h0l.1.2v.6l.1.3v.1l.1.5.1.1.1.4h0a9.83,9.83,0,0,0,.5,1.6l.1.1v.1l.1.4v.1a43.55,43.55,0,0,0,5.2,9h0l.3.4.1.1.1.1.1.2.1.2.1.1.1.1.1.2.2.2h0l.3.4.1.2h0l.1.2.5.6.1.2.1.1.1.1.2.2.2.2.2.2.2.2.1.1.1.1.2.2.2.2.1.1.1.1.2.2.2.2v.1l.3.4h0l.2.2h0l.2.2.2.2.1.1.1.1.2.2.2.2.1.1.1.1.2.2.2.2h0l.1.2.2.2.1.2h0l.2.2.2.2.1.1.1.1.3.3h0v.1h0c2.9,3.1,6.1,6.2,9.2,9.2l4.1,4.1a3.53,3.53,0,0,1,0,5.1,3.63,3.63,0,0,1-3.5,1l-9-2.4-.5,112.4Zm52-.7A11.65,11.65,0,0,1,431,382l.2-.1a11.9,11.9,0,0,1,8.9-1.2,11.71,11.71,0,0,1,7.1,5.5,11.9,11.9,0,0,1,1.2,8.9h0a11.3,11.3,0,0,1-5.4,7.1,11.9,11.9,0,0,1-8.9,1.2A11.57,11.57,0,0,1,426.9,397.9Zm-15,4.2-1.6,6,41.8,11.2,28.3-105.5-41.8-11.2ZM219.9,41.2A14.29,14.29,0,0,1,230,45.4a14.12,14.12,0,0,1,4.2,10.1A14.29,14.29,0,0,1,230,65.6a14.3,14.3,0,0,1-24.4-10.1,14.29,14.29,0,0,1,4.2-10.1A14.47,14.47,0,0,1,219.9,41.2Zm64.9,33V53.9h-37a3.69,3.69,0,0,1-3.7-3.7v-.1a24.2,24.2,0,0,0-48.4.1,3.69,3.69,0,0,1-3.7,3.7H155v38H284.8V74.2ZM149,160H122v27h27Zm0,73.9H122v27h27V250.4l-11.8,4.7a3.7,3.7,0,0,1-4.6-1.5l-5.4-8.8a3.64,3.64,0,1,1,6.2-3.8l3.8,6.2,11.7-4.7.1-8.6Zm0,74H122v27h27Zm0,74H122v27h27V398.4l-11.8,4.7a3.7,3.7,0,0,1-4.6-1.5l-5.4-8.8a3.64,3.64,0,1,1,6.2-3.8l3.8,6.2,11.7-4.7.1-8.6ZM224.8,50.6a6.63,6.63,0,0,0-4.9-2,7.23,7.23,0,0,0-4.9,2,6.63,6.63,0,0,0-2,4.9,7.23,7.23,0,0,0,2,4.9,6.63,6.63,0,0,0,4.9,2,7.23,7.23,0,0,0,4.9-2,6.8,6.8,0,0,0,2-4.9A6.63,6.63,0,0,0,224.8,50.6ZM164.1,192.2a3.7,3.7,0,0,1,0-7.4H299.5a3.69,3.69,0,0,1,3.7,3.7,3.63,3.63,0,0,1-3.7,3.7Zm0,74a3.69,3.69,0,0,1-3.7-3.7,3.76,3.76,0,0,1,3.7-3.7H299.5a3.7,3.7,0,0,1,0,7.4Zm0,74a3.7,3.7,0,0,1,0-7.4H299.5a3.7,3.7,0,0,1,0,7.4Zm0,74a3.69,3.69,0,0,1-3.7-3.7,3.76,3.76,0,0,1,3.7-3.7H299.5a3.7,3.7,0,0,1,0,7.4Zm206.3,9.4a3.64,3.64,0,0,1-2.6-4.5,3.71,3.71,0,0,1,4.5-2.6l10.4,2.8L390,415a4,4,0,0,1,2.8-.4l38,10.2a3.67,3.67,0,1,1-1.9,7.1l-36.5-9.8-7.1,4.1a3.46,3.46,0,0,1-3,.5ZM44.8,486a3.7,3.7,0,0,1,0-7.4H287.3a3.76,3.76,0,0,1,3.7,3.7,3.69,3.69,0,0,1-3.7,3.7Zm142-16.4a3.7,3.7,0,0,1,0-7.4H354.6a3.76,3.76,0,0,1,3.7,3.7,3.69,3.69,0,0,1-3.7,3.7Zm185,0a3.7,3.7,0,1,1,0-7.4h21a3.7,3.7,0,0,1,0,7.4Zm-336.6.5a3.69,3.69,0,0,1-3.7-3.7,3.63,3.63,0,0,1,3.7-3.7h79.5a3.69,3.69,0,0,1,3.7,3.7,3.63,3.63,0,0,1-3.7,3.7Zm412.5,8.6a3.76,3.76,0,0,1,3.7,3.7,3.69,3.69,0,0,1-3.7,3.7h-73a3.7,3.7,0,1,1,0-7.4ZM107.7,50.6a3.69,3.69,0,0,1,3.7,3.7,3.63,3.63,0,0,1-3.7,3.7H51.4V179.5a3.7,3.7,0,1,1-7.4,0V54.3a3.69,3.69,0,0,1,3.7-3.7ZM367.6,401.4V273.7l-.2-.2-.2-.2-.1-.1-.1-.1-.2-.2-.2-.2h0l-.2-.2-.2-.2-.1-.1-.1-.1-.2-.2-.2-.2h0l-.2-.2-.2-.2-.1-.1-.1-.1-.2-.2-.2-.2h0l-.1-.2-.2-.2-.1-.1-.1-.1-.2-.2-.2-.2-.3-.4-.1-.1-.1-.1-.2-.2-.2-.2h0l-.1-.2-.2-.2-.6-.7-.1-.2-.1-.2-.3-.4-.2-.2-.3-.4-.1-.2h0l-.5-.6-.1-.2-.2-.2v-.1l-.1-.2-.2-.2a43.33,43.33,0,0,1-7.4-15.5l-.1-.3h0l-.1-.2-.1-.3v-.3l-.1-.3v-.2l-.1-.3v-.9h0v-2.9h0V243h0v-.7h0v-.4h0v-.2h0v-.4h0v-.1h0v-.4h0v-.1h0V240h0v-.1h0v-.4h0v-.7h0v-1h0v-.1h0v-.4h0v-.1h0v-.4h0v-.1h0l.1-.2v-.2h0v-.1h0v-.3l.1-.1h0v-.1h0v-.2h0v-.1l.1-.1h0v-.2h0l.1-.3h0v-.1l.1-.1.1-.1h0v-.1l.1-.2v-.1h0l.1-.1h0l.1-.1.3-.6h0c.2-.4.5-.8.7-1.2a12.44,12.44,0,0,1,9.7-5.1h2.9V78H290.8V95.5a3.69,3.69,0,0,1-3.7,3.7H151.4a3.69,3.69,0,0,1-3.7-3.7V78H72.3c1.7,121.8.7,243.7.7,365.6H367.6V401.4Z" transform="translate(-31.5 -26)"/></g></svg>