<svg id="Layer_1" data-name="Layer 1" xmlns="http://www.w3.org/2000/svg" viewBox="0 0 433.1 460"><defs><style>.cls-1{fill:#fff;fill-rule:evenodd;}</style></defs><title>typewriter-btn</title><g id="_455_Article_blog_story_typewriter_writer" data-name="455, Article, blog, story, typewriter, writer"><path class="cls-1" d="M464.5,169.6H447.3v19h17.2ZM58,169.6l-18.6-.3v19l18.6.3Zm97.3,47.5h-23a21.44,21.44,0,0,0-15.4,6.4c-4.4,4.3-7.2,10.6-8,17.4L89,406.7a14.77,14.77,0,0,0-.1,2.1A19.35,19.35,0,0,0,95,422.5a25.73,25.73,0,0,0,14.6,7,26.35,26.35,0,0,0,2.8.2H394.3a24.58,24.58,0,0,0,2.8-.2,25.71,25.71,0,0,0,14.6-7,19.53,19.53,0,0,0,6.1-13.7c-2.8-52-13.6-115.1-20-168a29.6,29.6,0,0,0-7.9-17.2l-.2-.2a21.27,21.27,0,0,0-15.4-6.4h-23a96.35,96.35,0,0,1-7.1,29,99.88,99.88,0,0,1-21.4,32,98,98,0,0,1-139.2,0,96.58,96.58,0,0,1-28.3-60.9Zm25.4,0h-5.2a75.9,75.9,0,0,0,5.5,21.3,78.43,78.43,0,0,0,102.3,42.5A79.08,79.08,0,0,0,331.4,217h-5.2a74,74,0,0,1-20.8,41.2l-.2.2c-.6.6-1.3,1.2-1.9,1.9l-.2.1-.5.4-.1.1-.6.5h-.1l-.6.5h0l-.6.5-.1.1-.6.5-.1.1-.5.5-.1.1-.5.4-.2.1-.5.4-.2.2c-.9.7-1.9,1.4-2.8,2h-.1l-.2.2-.5.3-.7.5-.2.1-.6.4-.1.1-.6.4h-.1l-.7.4h0l-.7.4h0l-.7.4h-.1l-.6.4-.1.1-.6.3-.2.1-.5.3-.2.1-.5.3-.3.1-.5.2-.4.2-.4.2-.4.2-.4.2-.4.2-.3.1-.5.2-.8.4-.2.1-.6.2-.2.1-.7.3h-.1l-.7.3h0l-.8.3h0l-.8.3h-.1l-.7.3h-.1l-.7.2-.2.1-.6.2-.2.1-.6.2-.3.1-.5.2-.3.1-.5.1-.4.1-.4.1-.5.1-.4.1-.5.1-.3.1-.6.1-.2.1-.6.1-.2.1-.7.1h-.1l-.8.2h-.1l-.8.2h0l-.8.2h0l-.8.1h-.1l-.8.1h-.1l-.7.1h-.2l-.7.1h-.3l-.6.1h-.3l-.5.1-.4.1-.5.1h-.8l-.5.1H247.8l-.5-.1h-.8l-.5-.1-.3-.1-.6-.1h-.3l-.6-.1H244l-.7-.1H243l-.8-.1h-.1l-.8-.1h0l-.8-.1h0l-.8-.1h-.1l-.7-.1h-.2l-.7-.2h-.2l-.6-.1-.3-.1-.5-.1-.3-.1-.9-.2-.4-.1-.4-.1-.4-.1-.5-.1-.3-.1-.5-.2-.2-.1-.6-.2-.2-.1-.7-.2h-.1l-.7-.2h-.1l-.8-.3h0l-.8-.3h0l-.7-.3-.1-.1-.7-.2-.2-.1-.6-.2-.2-.1-.5-.2-.3-.1-.5-.2-.3-.2-.8-.3h-.1l-.4-.2-.4-.2-.3-.1-.5-.2-.3-.1-.5-.3-.2-.1-.6-.3-.1-.1-.7-.4h-.1l-.7-.4h0l-.7-.4h0l-.7-.4-.1-.1-.6-.4-.1-.1-.6-.4-.2-.1-.5-.3-.2-.1-.1-.1-.6-.4-.4-.3-.3-.2-.7-.5-.3-.2-.4-.3-.2-.2-.5-.3-.2-.1-.5-.4-.2-.1-.5-.4-.1-.1-.6-.5h-.1l-.7-.5h0l-.6-.5-.1-.1-.6-.5-.1-.1-.5-.5-.1-.1-.5-.4-.2-.2-.4-.4-.2-.2-.4-.4-.3-.2-.3-.3-.3-.3-.2-.2-.4-.4-.6-.6-.1-.1-.5-.5h0l-.5-.5-.1-.1-.5-.5-.1-.1-.4-.5-.2-.2-.6-.7-.3-.3-.3-.4-.2-.2-.4-.4-.2-.2-.4-.5-1.1-1.3-.1-.1-.4-.6-.1-.1-.4-.5-.2-.2-.1-.1-1-1.3-.2-.3-.3-.4-.1-.2-.4-.5-.6.1-.4-.7h0l-.4-.7v-.1l-.4-.6-.1-.2-.3-.5-.1-.2-.3-.4-.2-.3-.2-.4-.2-.4-.2-.3-.3-.5-.1-.2-.3-.6-.1-.1-.4-.7h0l-.4-.7v-.1l-.3-.6-.1-.2-.3-.5c-.7-1.4-1.4-2.8-2-4.3h0l-.3-.7A64.49,64.49,0,0,1,180.7,217.1Zm18.2,27.7,2.7,3.6.4.4.1.1.9,1.1.1.1.5.5h0l.5.5h0l.5.6.5.5.1.1.4.5.1.1.4.4.1.1.4.4.2.2.4.4.5.5.2.2.3.3.3.3.3.2.5.5.4.3.2.2.4.4.1.1.5.4.1.1.5.4h.1l1.2.9h0l1.2.9.1.1.5.4.2.1.4.3.2.1.4.3.3.2.3.2,1.3.8.4.2.2.1.5.3.2.1.5.3.1.1.5.3h.1l.6.4h0l1.3.7.1.1.6.3.1.1.5.3.2.1.5.2.2.1.5.2.3.1.4.2h0l.7.3.4.2.3.1.7.3.5.2.2.1.5.2.2.1.6.2.1.1.7.2h.1l.7.2h0l.7.2h.1l.7.2h.1l.6.2h.2l.6.2.2.1.5.2.3.1.5.1.7.2.4.1.4.1.4.1.3.1.5.1.2.1.6.1h.2l.6.1h.2l.7.1h.1l.7.1h0l.8.1h0l.7.1h.1l.7.1h.1l.7.1h.2l.6.1h.2l.5.1h.3l.5.1h.8l.4.1h.4l.5.1h.3l.6.1h6.8l.6-.1h.3l.5-.1h.3l.5-.1h.8l.4-.1h.4l.5-.1h.3l.5-.1.8-.1h.2l.6-.1h.1l.7-.1h.1l.7-.1h0l.8-.2h0l.7-.1h.1l.7-.1h.1l.6-.1.2-.1.5-.1.2-.1.5-.1.8-.2.3-.1.4-.1.4-.1.4-.1.4-.1.3-.1.7-.2.5-.2.2-.1.6-.2.1-.1.6-.2h.1l.7-.2h.1l.7-.3h0l.7-.3h.1l.6-.2.1-.1.6-.2.2-.1.5-.2.2-.1.5-.2.7-.3.3-.1.4-.2.3-.2.4-.2.7-.3.4-.2.2-.1.7-.4.5-.3.2-.1.7-.4.6-.3.1-.1.6-.4h0l.7-.4h0l.6-.4.7-.4.1-.1.5-.3.2-.1.4-.3.2-.1.4-.3.2-.2.4-.2.3-.2.3-.2c1-.7,2-1.5,3-2.3l.5-.4.1-.1.5-.5h0l.6-.5h0l.5-.5.6-.5.1-.1.5-.4.1-.1.4-.4.2-.1.4-.4.2-.2.4-.4.2-.2v-.1l.1-.1a66.53,66.53,0,0,0,19.6-47.1v-.9H186.7v.9c0,2.3.1,4.6.3,6.8h0v.4a66.48,66.48,0,0,0,3.1,14.2l.1.2.2.5.3.8.1.1.2.6v.1l.3.7h0l.3.7h0l.6,1.4.1.1.2.6.1.2.2.5.1.2.2.5.1.2.2.4.1.3.2.4.2.3.2.3.2.4.2.3.2.4.1.2.3.5.1.2.3.5.1.1.4.7.4.6.1.1.4.6h0l.4.6h0l.4.6.1.1.4.5.1.1.4.5.1.2Zm132.9-39.3h-4.9v.9c0,1.3,0,2.7-.1,4h5v-4.9ZM175,210.3h5c-.1-1.3-.1-2.6-.1-4v-.9H175v4.9ZM110.1,327.9h19.6a16,16,0,0,0-2.9-6.9,8.16,8.16,0,0,0-13.8,0A14.91,14.91,0,0,0,110.1,327.9Zm9.8,6.7H106.4a3.44,3.44,0,0,1-3.4-3.4v-.1a23.36,23.36,0,0,1,4.7-14.3,15.41,15.41,0,0,1,12.2-6.4c4.8,0,9.1,2.5,12.2,6.4a24,24,0,0,1,4.6,14.3,3.37,3.37,0,0,1-3.4,3.4H119.9Zm34.4-6.7h19.6a15,15,0,0,0-3-6.9,8.62,8.62,0,0,0-6.9-3.8,8.77,8.77,0,0,0-6.9,3.8A16,16,0,0,0,154.3,327.9Zm9.8,6.7H150.7a3.37,3.37,0,0,1-3.4-3.4v-.1a24,24,0,0,1,4.6-14.3,15.41,15.41,0,0,1,12.2-6.4c4.8,0,9.1,2.5,12.2,6.4a23.3,23.3,0,0,1,4.6,14.3,3.37,3.37,0,0,1-3.4,3.4H164.1Zm34.4-6.7h19.6a15,15,0,0,0-3-6.9,8.62,8.62,0,0,0-6.9-3.8,8.77,8.77,0,0,0-6.9,3.8A16,16,0,0,0,198.5,327.9Zm9.8,6.7H194.9a3.37,3.37,0,0,1-3.4-3.4v-.1a24,24,0,0,1,4.6-14.3,15.41,15.41,0,0,1,12.2-6.4c4.8,0,9.1,2.5,12.2,6.4a23.3,23.3,0,0,1,4.6,14.3,3.37,3.37,0,0,1-3.4,3.4H208.3Zm34.3-6.7h19.6a16,16,0,0,0-2.9-6.9,8.62,8.62,0,0,0-6.9-3.8,8.77,8.77,0,0,0-6.9,3.8A17.35,17.35,0,0,0,242.6,327.9Zm9.8,6.7H239a3.37,3.37,0,0,1-3.4-3.4v-.1a24,24,0,0,1,4.6-14.3,15.41,15.41,0,0,1,12.2-6.4c4.8,0,9.1,2.5,12.2,6.4a23.3,23.3,0,0,1,4.6,14.3,3.37,3.37,0,0,1-3.4,3.4H252.4Zm34.4-6.7h19.6a16,16,0,0,0-2.9-6.9,8.16,8.16,0,0,0-13.8,0A17.35,17.35,0,0,0,286.8,327.9Zm9.8,6.7H283.2a3.37,3.37,0,0,1-3.4-3.4v-.1a24,24,0,0,1,4.6-14.3,15.41,15.41,0,0,1,12.2-6.4c4.8,0,9.1,2.5,12.2,6.4a24,24,0,0,1,4.6,14.3,3.37,3.37,0,0,1-3.4,3.4H296.6Zm34.4-6.7h19.6a15,15,0,0,0-3-6.9,8.62,8.62,0,0,0-6.9-3.8,8.77,8.77,0,0,0-6.9,3.8A17.27,17.27,0,0,0,331,327.9Zm9.8,6.7H327.4a3.44,3.44,0,0,1-3.4-3.4v-.1a24,24,0,0,1,4.6-14.3,15.41,15.41,0,0,1,12.2-6.4c4.8,0,9.1,2.5,12.2,6.4a23.3,23.3,0,0,1,4.6,14.3,3.37,3.37,0,0,1-3.4,3.4H340.8Zm34.4-6.7h19.6a15,15,0,0,0-3-6.9,8.62,8.62,0,0,0-6.9-3.8A8.77,8.77,0,0,0,378,321,17.27,17.27,0,0,0,375.2,327.9Zm9.8,6.7H371.6a3.37,3.37,0,0,1-3.4-3.4v-.1a24,24,0,0,1,4.6-14.3,15.41,15.41,0,0,1,12.2-6.4c4.8,0,9.1,2.5,12.2,6.4a23.3,23.3,0,0,1,4.6,14.3,3.37,3.37,0,0,1-3.4,3.4H385ZM110.1,363.2h19.6a16,16,0,0,0-2.9-6.9,9.05,9.05,0,0,0-6.9-3.8,8.77,8.77,0,0,0-6.9,3.8A14.91,14.91,0,0,0,110.1,363.2Zm9.8,6.7H106.4a3.44,3.44,0,0,1-3.4-3.4v-.1a23.36,23.36,0,0,1,4.7-14.3,14.83,14.83,0,0,1,24.4,0,24,24,0,0,1,4.6,14.3,3.37,3.37,0,0,1-3.4,3.4H119.9Zm34.4-6.7h19.6a15,15,0,0,0-3-6.9,8.62,8.62,0,0,0-6.9-3.8,9.05,9.05,0,0,0-6.9,3.8A16,16,0,0,0,154.3,363.2Zm9.8,6.7H150.7a3.37,3.37,0,0,1-3.4-3.4v-.1a24,24,0,0,1,4.6-14.3,14.83,14.83,0,0,1,24.4,0,23.3,23.3,0,0,1,4.6,14.3,3.37,3.37,0,0,1-3.4,3.4H164.1Zm34.3-6.7H218a15,15,0,0,0-3-6.9,8.62,8.62,0,0,0-6.9-3.8,9.05,9.05,0,0,0-6.9,3.8A18.85,18.85,0,0,0,198.4,363.2Zm9.9,6.7H194.9a3.37,3.37,0,0,1-3.4-3.4v-.1a24,24,0,0,1,4.6-14.3,14.83,14.83,0,0,1,24.4,0,23.3,23.3,0,0,1,4.6,14.3,3.37,3.37,0,0,1-3.4,3.4H208.3Zm34.3-6.7h19.6a16,16,0,0,0-2.9-6.9,8.62,8.62,0,0,0-6.9-3.8,9.05,9.05,0,0,0-6.9,3.8A17.35,17.35,0,0,0,242.6,363.2Zm9.8,6.7H239a3.37,3.37,0,0,1-3.4-3.4v-.1a24,24,0,0,1,4.6-14.3,14.83,14.83,0,0,1,24.4,0,23.3,23.3,0,0,1,4.6,14.3,3.37,3.37,0,0,1-3.4,3.4H252.4Zm34.4-6.7h19.6a16,16,0,0,0-2.9-6.9,8.9,8.9,0,0,0-6.9-3.8,8.62,8.62,0,0,0-6.9,3.8A17.35,17.35,0,0,0,286.8,363.2Zm9.8,6.7H283.2a3.37,3.37,0,0,1-3.4-3.4v-.1a24,24,0,0,1,4.6-14.3,14.83,14.83,0,0,1,24.4,0,24,24,0,0,1,4.6,14.3,3.37,3.37,0,0,1-3.4,3.4H296.6Zm34.4-6.7h19.6a15,15,0,0,0-3-6.9,8.9,8.9,0,0,0-6.9-3.8,8.77,8.77,0,0,0-6.9,3.8A17.27,17.27,0,0,0,331,363.2Zm9.8,6.7H327.4a3.44,3.44,0,0,1-3.4-3.4v-.1a24,24,0,0,1,4.6-14.3,14.83,14.83,0,0,1,24.4,0,23.3,23.3,0,0,1,4.6,14.3,3.37,3.37,0,0,1-3.4,3.4H340.8Zm34.4-6.7h19.6a15,15,0,0,0-3-6.9,8.62,8.62,0,0,0-6.9-3.8,9.05,9.05,0,0,0-6.9,3.8A17.27,17.27,0,0,0,375.2,363.2Zm9.8,6.7H371.6a3.37,3.37,0,0,1-3.4-3.4v-.1a24,24,0,0,1,4.6-14.3,14.83,14.83,0,0,1,24.4,0,23.3,23.3,0,0,1,4.6,14.3,3.37,3.37,0,0,1-3.4,3.4H385ZM110.1,398.5h19.6a16,16,0,0,0-2.9-6.9,9.05,9.05,0,0,0-6.9-3.8,8.77,8.77,0,0,0-6.9,3.8A14.91,14.91,0,0,0,110.1,398.5Zm9.8,6.7H106.4a3.44,3.44,0,0,1-3.4-3.4v-.1a23.36,23.36,0,0,1,4.7-14.3,15.41,15.41,0,0,1,12.2-6.4c4.8,0,9.1,2.5,12.2,6.4a24,24,0,0,1,4.6,14.4,3.37,3.37,0,0,1-3.4,3.4Zm34.4-6.7h19.6a15,15,0,0,0-3-6.9,8.9,8.9,0,0,0-6.9-3.8,8.77,8.77,0,0,0-6.9,3.8A16,16,0,0,0,154.3,398.5Zm9.8,6.7H150.7a3.37,3.37,0,0,1-3.4-3.4v-.1a24,24,0,0,1,4.6-14.3,14.83,14.83,0,0,1,24.4,0,23.38,23.38,0,0,1,4.6,14.4,3.37,3.37,0,0,1-3.4,3.4Zm34.3-6.7H218a15,15,0,0,0-3-6.9,8.9,8.9,0,0,0-6.9-3.8,8.77,8.77,0,0,0-6.9,3.8A18.85,18.85,0,0,0,198.4,398.5Zm9.9,6.7H194.9a3.37,3.37,0,0,1-3.4-3.4v-.1a24,24,0,0,1,4.6-14.3c3.1-3.9,7.4-6.4,12.2-6.4a15.41,15.41,0,0,1,12.2,6.4,23.38,23.38,0,0,1,4.6,14.4,3.37,3.37,0,0,1-3.4,3.4Zm34.3-6.7h19.6a16,16,0,0,0-2.9-6.9,8.9,8.9,0,0,0-6.9-3.8,8.77,8.77,0,0,0-6.9,3.8A17.35,17.35,0,0,0,242.6,398.5Zm9.8,6.7H239a3.37,3.37,0,0,1-3.4-3.4v-.1a24,24,0,0,1,4.6-14.3,14.83,14.83,0,0,1,24.4,0,23.38,23.38,0,0,1,4.6,14.4,3.37,3.37,0,0,1-3.4,3.4Zm34.4-6.7h19.6a16,16,0,0,0-2.9-6.9,8.9,8.9,0,0,0-6.9-3.8,8.62,8.62,0,0,0-6.9,3.8A17.35,17.35,0,0,0,286.8,398.5Zm9.8,6.7H283.2a3.37,3.37,0,0,1-3.4-3.4v-.1a24,24,0,0,1,4.6-14.3,15.41,15.41,0,0,1,12.2-6.4c4.8,0,9.1,2.5,12.2,6.4a24,24,0,0,1,4.6,14.4,3.37,3.37,0,0,1-3.4,3.4Zm34.4-6.7h19.6a15,15,0,0,0-3-6.9,8.9,8.9,0,0,0-6.9-3.8,8.77,8.77,0,0,0-6.9,3.8A17.27,17.27,0,0,0,331,398.5Zm9.8,6.7H327.4a3.44,3.44,0,0,1-3.4-3.4v-.1a24,24,0,0,1,4.6-14.3,14.83,14.83,0,0,1,24.4,0,23.38,23.38,0,0,1,4.6,14.4,3.37,3.37,0,0,1-3.4,3.4Zm34.4-6.7h19.6a15,15,0,0,0-3-6.9,8.9,8.9,0,0,0-6.9-3.8,8.77,8.77,0,0,0-6.9,3.8A17.27,17.27,0,0,0,375.2,398.5ZM207.4,46.3a3.4,3.4,0,0,1,0-6.8h47.7a3.4,3.4,0,1,1,0,6.8Zm0,26.2a3.4,3.4,0,0,1,0-6.8h73a3.4,3.4,0,1,1,0,6.8Zm0,22.5a3.4,3.4,0,0,1,0-6.8H299a3.37,3.37,0,0,1,3.4,3.4A3.44,3.44,0,0,1,299,95Zm0,22.4a3.4,3.4,0,1,1,0-6.8h52.5a3.44,3.44,0,0,1,3.4,3.4,3.37,3.37,0,0,1-3.4,3.4Zm0,22.4a3.37,3.37,0,0,1-3.4-3.4,3.44,3.44,0,0,1,3.4-3.4H299a3.4,3.4,0,0,1,0,6.8Zm131.1,42.7H320.2v16.3H186.7V182.5H168.4v26.1a85.1,85.1,0,0,0,170.2,0l-.1-26.1Zm32.9,0H345.2v26.1a91.8,91.8,0,0,1-183.6,0V182.5H133.9v19.6a3.49,3.49,0,0,1-3.3,3.4h24.2v4.9H132.2a28,28,0,0,0-20.1,8.4,36.24,36.24,0,0,0-9.9,21.3L82.4,405.9c-.1,1-.2,2-.2,2.9a26.14,26.14,0,0,0,8.1,18.5,32.58,32.58,0,0,0,18.5,8.9c1.2.1,2.4.2,3.6.2H394.3c1.2,0,2.4-.1,3.6-.2a32,32,0,0,0,18.5-8.9,25.74,25.74,0,0,0,8.1-18.5,26.35,26.35,0,0,0-.2-2.8L404.5,240a36.63,36.63,0,0,0-9.7-21.1l-.2-.2a28,28,0,0,0-20.1-8.4H351.9v-4.9h22.7a3.42,3.42,0,0,1-3.3-3.4V182.5Zm-26.2-6.7h26.2V164.9H345.2Zm-25.1,0h18.3V164.9H320.1Zm-151.8,0h18.3V164.9H168.3Zm-34.4,0h27.7V164.9H133.9Zm-61,0h54.4V99.5a3.35,3.35,0,0,1,3.4-3.3,3.42,3.42,0,0,1,3.4,3.3v58.6h27.7V141.3a3.4,3.4,0,0,1,6.8,0v16.8h18.3V26H320.4V158.1h18.3V141.3a3.4,3.4,0,1,1,6.8,0v16.8h26.2V99.5a3.4,3.4,0,0,1,6.8,0v76.3h54.4V158.2H441v41.9h-8.1V182.5H378.5v19.6a3.41,3.41,0,0,1-3.3,3.4h12.4a24,24,0,0,1,17.2,7.2,32.87,32.87,0,0,1,9,19.4l22,183.4a19.27,19.27,0,0,1,.1,2.4,21.63,21.63,0,0,1-6.9,15.4,28.4,28.4,0,0,1-16.3,7.8c-1,.1-2.1.2-3.2.2H97.5c-1.1,0-2.2-.1-3.2-.2A27.82,27.82,0,0,1,78,433.3a21.63,21.63,0,0,1-6.9-15.4c0-.8.1-1.6.1-2.4l22-183.4a32.87,32.87,0,0,1,9-19.4,24,24,0,0,1,17.3-7.2h11a3.42,3.42,0,0,1-3.3-3.4V182.5H72.9v17.6H64.8V158.2h8.1v17.6ZM56.1,468.5a3.4,3.4,0,1,1,0-6.8H344a3.4,3.4,0,0,1,0,6.8ZM224.6,486a3.37,3.37,0,0,1-3.4-3.4,3.44,3.44,0,0,1,3.4-3.4H423.8a3.4,3.4,0,0,1,0,6.8Zm219.6,0a3.4,3.4,0,1,1,0-6.8h24.9a3.44,3.44,0,0,1,3.4,3.4,3.37,3.37,0,0,1-3.4,3.4Zm-399.5-.5a3.4,3.4,0,0,1,0-6.8h94.4a3.4,3.4,0,0,1,0,6.8ZM385,405.2H371.6a3.37,3.37,0,0,1-3.4-3.4v-.1a24,24,0,0,1,4.6-14.3,14.83,14.83,0,0,1,24.4,0,23.38,23.38,0,0,1,4.6,14.4,3.37,3.37,0,0,1-3.4,3.4Z" transform="translate(-39.4 -26)"/></g></svg>