<svg xmlns="http://www.w3.org/2000/svg" viewBox="0 0 407.36 379.27"><title>pq-checks</title><g style="isolation:isolate"><text transform="translate(111.18 213.49)" style="isolation:isolate;font-size:65px;fill:#fff;stroke:#fff;stroke-miterlimit:10;font-family:Audiowide-Regular, Audiowide">DE</text><text transform="translate(213.79 213.49)" style="isolation:isolate;font-size:65px;fill:#fff;stroke:#fff;stroke-miterlimit:10;font-family:Audiowide-Regular, Audiowide;letter-spacing:-0.01025390625em">L</text><text transform="translate(261.46 213.49)" style="isolation:isolate;font-size:65px;fill:#fff;stroke:#fff;stroke-miterlimit:10;font-family:Audiowide-Regular, Audiowide">ETE</text></g><g style="isolation:isolate"><text transform="translate(111.18 359.23)" style="isolation:isolate;font-size:65px;fill:#fff;stroke:#fff;stroke-miterlimit:10;font-family:Audiowide-Regular, Audiowide;letter-spacing:-0.020252403846153847em">L</text><text transform="translate(158.34 359.23)" style="isolation:isolate;font-size:65px;fill:#fff;stroke:#fff;stroke-miterlimit:10;font-family:Audiowide-Regular, Audiowide">OO</text><text transform="translate(270.19 359.23)" style="isolation:isolate;font-size:65px;fill:#fff;stroke:#fff;stroke-miterlimit:10;font-family:Audiowide-Regular, Audiowide;letter-spacing:-0.018787560096153847em">P</text></g><text transform="translate(111.18 68.25)" style="isolation:isolate;font-size:65px;fill:#fff;stroke:#fff;stroke-miterlimit:10;font-family:Audiowide-Regular, Audiowide">TYPE</text><polyline points="82.63 30.3 82.45 82.74 1.5 82.45 1.79 1.5 82.74 1.79 82.71 8.23" style="fill:none;stroke:#fff;stroke-linecap:round;stroke-linejoin:round;stroke-width:3px"/><polyline points="15.95 30.07 45.73 60.07 93.75 7.35" style="fill:none;stroke:#fff;stroke-linecap:round;stroke-linejoin:round;stroke-width:3px"/><polyline points="82.63 170.94 82.45 223.37 1.5 223.08 1.79 142.13 82.74 142.43 82.71 148.86" style="fill:none;stroke:#fff;stroke-linecap:round;stroke-linejoin:round;stroke-width:3px"/><polyline points="15.95 170.7 45.73 200.7 93.75 147.98" style="fill:none;stroke:#fff;stroke-linecap:round;stroke-linejoin:round;stroke-width:3px"/><polyline points="82.63 325.34 82.45 377.77 1.5 377.48 1.79 296.54 82.74 296.83 82.71 303.26" style="fill:none;stroke:#fff;stroke-linecap:round;stroke-linejoin:round;stroke-width:3px"/><polyline points="15.95 325.1 45.73 355.11 93.75 302.38" style="fill:none;stroke:#fff;stroke-linecap:round;stroke-linejoin:round;stroke-width:3px"/></svg>