<svg id="Layer_1" data-name="Layer 1" xmlns="http://www.w3.org/2000/svg" viewBox="0 0 419.82 390.04"><defs><style>.cls-1{font-size:65px;font-family:Audiowide-Regular, Audiowide;}.cls-1,.cls-4{fill:#fff;}.cls-2{letter-spacing:0em;}.cls-3{fill:none;stroke:#fff;stroke-miterlimit:10;}.cls-5{letter-spacing:-0.01em;}.cls-6{letter-spacing:-0.01em;}</style></defs><title>pq-features</title><text class="cls-1" transform="translate(110.04 225.76)">DE<tspan class="cls-2" x="102.61" y="0">L</tspan><tspan x="150.28" y="0">ETE</tspan></text><rect class="cls-3" x="0.5" y="168.82" width="69.41" height="69.41"/><path class="cls-4" d="M52.47,234.11l23.4,48.14a1.51,1.51,0,0,0,2.74-.36c9.65-35,29.52-70.42,66.12-82.3,1.83-.59,1.05-3.49-.79-2.89-37.62,12.21-58.28,48.3-68.22,84.4l2.74-.36L55.06,232.6c-.84-1.74-3.43-.22-2.59,1.51Z" transform="translate(-41.16 -52.4)"/><text class="cls-1" transform="translate(110.04 371.5)"><tspan class="cls-5">L</tspan><tspan x="47.16" y="0">OO</tspan><tspan class="cls-6" x="159.01" y="0">P</tspan></text><rect class="cls-3" x="0.5" y="314.57" width="69.41" height="69.41"/><path class="cls-4" d="M51.07,381.71l23.4,48.14a1.51,1.51,0,0,0,2.74-.36c9.65-35,29.52-70.43,66.12-82.3,1.83-.6,1-3.49-.79-2.9-37.62,12.21-58.28,48.31-68.22,84.4l2.74-.36-23.4-48.14c-.84-1.73-3.43-.21-2.59,1.52Z" transform="translate(-41.16 -52.4)"/><rect class="cls-3" x="0.5" y="19.7" width="69.41" height="69.41"/><text class="cls-1" transform="translate(110.04 80.52)">TYPE</text><path class="cls-4" d="M51.07,89.89,74.47,138a1.51,1.51,0,0,0,2.74-.36c9.65-35,29.52-70.42,66.12-82.3,1.83-.59,1-3.49-.79-2.89-37.62,12.2-58.28,48.3-68.22,84.39l2.74-.35L53.66,88.38c-.84-1.74-3.43-.22-2.59,1.51Z" transform="translate(-41.16 -52.4)"/></svg>